
<svg width="20px" height="32px" viewBox="0 0 20 32" version="1.1" xmlns="http://www.w3.org/2000/svg" xmlns:xlink="http://www.w3.org/1999/xlink">
    <!-- Generator: Sketch 48.2 (47327) - http://www.bohemiancoding.com/sketch -->
    <desc>Created with Sketch.</desc>
    <defs></defs>
    <g id="Onboarding" stroke="none" stroke-width="1" fill="none" fill-rule="evenodd">
        <g id="1.0-sign-up" transform="translate(-710.000000, -33.000000)" fill="#FFFFFF">
            <g id="icons/logo-troops-white-48" transform="translate(696.000000, 24.000000)">
                <g id="troops-icon" transform="translate(14.000000, 9.000000)">
                    <polygon id="Shape" fill-rule="nonzero" points="11 18 11 26 9 26 9 18 5.5 18 5.5 16 14.5 16 14.5 18"></polygon>
                    <polygon id="Shape" fill-rule="nonzero" points="10 4 11.0714286 7.11538462 15 7.11538462 11.8453988 9.4758963 13.4615385 13 10 10.75 6.53846154 13 8.11533742 9.4758963 5 7.11538462 8.92857143 7.11538462"></polygon>
                    <path d="M10,32 L0,27.961165 L0,0 L20,0 L20,27.961165 L10,32 Z M2,26.5 L10,29.8666667 L18,26.5 L18,2 L2,2 L2,26.5 Z" id="Shape" fill-rule="nonzero"></path>
                </g>
            </g>
        </g>
    </g>
</svg>
